<svg width="60" height="60" viewBox="0 0 60 60" fill="none" xmlns="http://www.w3.org/2000/svg">
<path fill-rule="evenodd" clip-rule="evenodd" d="M30 0C13.4315 0 0 13.4315 0 30C0 46.5685 13.4315 60 30 60C46.5685 60 60 46.5685 60 30C60 13.4315 46.5685 0 30 0ZM30 11C28.8954 11 28 11.8954 28 13V30C28 30.4154 28.1266 30.8012 28.3434 31.1209C28.4535 31.2838 28.5888 31.4322 28.7478 31.5596C28.8341 31.629 28.9263 31.6913 29.0235 31.7458L41.5544 39.1271C42.5061 39.6877 43.7321 39.3706 44.2927 38.4189C44.8533 37.4671 44.5362 36.2412 43.5845 35.6805L32 28.8567V13C32 11.8954 31.1046 11 30 11Z" fill="white"/>
</svg>
