<svg width="242" height="74" viewBox="0 0 242 74" fill="none" xmlns="http://www.w3.org/2000/svg">
<path d="M17.152 21H15.76V13.992H13.288V12.72H19.624V13.992H17.152V21ZM22.2181 21H20.8261V12.72H22.2181V21ZM25.153 21H23.737L24.685 12.72H26.665L28.321 18.132L29.977 12.72H31.909L32.857 21H31.441L30.745 14.412L29.041 19.74H27.553L25.837 14.412L25.153 21ZM39.8327 21H34.3847V12.72H39.7367V13.992H35.7767V16.104H39.1247V17.388H35.7767V19.728H39.8327V21ZM46.6984 21H40.9624V19.764L44.9464 13.992H41.0944V12.72H46.5664V13.956L42.5944 19.728H46.6984V21ZM51.1141 21.168C50.3861 21.168 49.7421 21 49.1821 20.664C48.6221 20.32 48.1861 19.824 47.8741 19.176C47.5621 18.528 47.4061 17.756 47.4061 16.86C47.4061 15.964 47.5621 15.192 47.8741 14.544C48.1861 13.896 48.6221 13.404 49.1821 13.068C49.7421 12.724 50.3861 12.552 51.1141 12.552C51.8421 12.552 52.4861 12.724 53.0461 13.068C53.6141 13.404 54.0541 13.896 54.3661 14.544C54.6781 15.192 54.8341 15.964 54.8341 16.86C54.8341 17.756 54.6781 18.528 54.3661 19.176C54.0541 19.824 53.6141 20.32 53.0461 20.664C52.4861 21 51.8421 21.168 51.1141 21.168ZM51.1141 19.896C51.8501 19.896 52.4181 19.636 52.8181 19.116C53.2261 18.588 53.4301 17.836 53.4301 16.86C53.4301 15.884 53.2261 15.136 52.8181 14.616C52.4181 14.088 51.8501 13.824 51.1141 13.824C50.3861 13.824 49.8181 14.088 49.4101 14.616C49.0101 15.136 48.8101 15.884 48.8101 16.86C48.8101 17.836 49.0101 18.588 49.4101 19.116C49.8181 19.636 50.3861 19.896 51.1141 19.896ZM57.6201 21H56.2401V12.72H57.9681L61.5441 19.008V12.72H62.9241V21H61.2441L57.6201 14.688V21ZM70.1959 21H64.7479V12.72H70.0999V13.992H66.1399V16.104H69.4879V17.388H66.1399V19.728H70.1959V21Z" fill="#B5B9C0"/>
<path d="M18.536 41.224C17.1707 41.224 16.1093 40.8613 15.352 40.136C14.5947 39.4 14.216 38.28 14.216 36.776V29.96H16.072V36.744C16.072 37.6827 16.2853 38.3813 16.712 38.84C17.1493 39.2987 17.7573 39.528 18.536 39.528C19.3147 39.528 19.9173 39.2987 20.344 38.84C20.7813 38.3813 21 37.6827 21 36.744V29.96H22.856V36.776C22.856 38.28 22.4773 39.4 21.72 40.136C20.9627 40.8613 19.9013 41.224 18.536 41.224ZM29.6141 41H27.7581V31.656H24.4621V29.96H32.9101V31.656H29.6141V41ZM38.4765 41.224C37.5272 41.224 36.6738 41 35.9165 40.552C35.1592 40.104 34.5618 39.448 34.1245 38.584C33.6872 37.72 33.4685 36.6853 33.4685 35.48C33.4685 34.296 33.6872 33.272 34.1245 32.408C34.5618 31.5333 35.1592 30.872 35.9165 30.424C36.6738 29.9653 37.5325 29.736 38.4925 29.736C39.4632 29.736 40.2952 29.9387 40.9885 30.344C41.6925 30.7493 42.2418 31.352 42.6365 32.152L41.2125 33.224C40.9352 32.648 40.5565 32.2053 40.0765 31.896C39.5965 31.5867 39.0685 31.432 38.4925 31.432C37.8952 31.432 37.3565 31.592 36.8765 31.912C36.3965 32.2213 36.0178 32.6853 35.7405 33.304C35.4738 33.912 35.3405 34.6373 35.3405 35.48C35.3405 36.2907 35.4738 37.0053 35.7405 37.624C36.0072 38.232 36.3752 38.7013 36.8445 39.032C37.3245 39.3627 37.8685 39.528 38.4765 39.528C39.0845 39.528 39.6232 39.3733 40.0925 39.064C40.5618 38.7547 40.9352 38.312 41.2125 37.736L42.6365 38.808C42.2312 39.5973 41.6765 40.2 40.9725 40.616C40.2685 41.0213 39.4365 41.224 38.4765 41.224ZM47.8443 39.368H46.3083V36.744H43.6842V35.208H46.3083V32.584H47.8443V35.208H50.4683V36.744H47.8443V39.368ZM59.064 39.384V41H51.736V40.504C51.736 39.6613 51.88 38.9413 52.168 38.344C52.456 37.736 52.84 37.224 53.32 36.808C53.8 36.3813 54.4027 35.9547 55.128 35.528C55.896 35.0693 56.4187 34.6533 56.696 34.28C56.984 33.9067 57.128 33.4853 57.128 33.016C57.128 32.5147 56.968 32.1147 56.648 31.816C56.328 31.5067 55.8747 31.352 55.288 31.352C54.2747 31.352 53.576 31.944 53.192 33.128L51.656 32.36C51.912 31.5813 52.3387 30.952 52.936 30.472C53.5333 29.9813 54.3387 29.736 55.352 29.736C56.472 29.736 57.352 30.0347 57.992 30.632C58.632 31.2293 58.952 32.0293 58.952 33.032C58.952 33.8107 58.7227 34.4987 58.264 35.096C57.816 35.6933 57.1067 36.2693 56.136 36.824C55.4 37.2613 54.84 37.6827 54.456 38.088C54.072 38.4827 53.832 38.9147 53.736 39.384H59.064ZM61.7348 41.128C61.3721 41.128 61.0788 41.016 60.8548 40.792C60.6414 40.568 60.5348 40.28 60.5348 39.928C60.5348 39.576 60.6468 39.2933 60.8708 39.08C61.0948 38.856 61.3828 38.744 61.7348 38.744C62.0868 38.744 62.3694 38.856 62.5828 39.08C62.8068 39.304 62.9188 39.5867 62.9188 39.928C62.9188 40.28 62.8068 40.568 62.5828 40.792C62.3694 41.016 62.0868 41.128 61.7348 41.128ZM61.7348 35.736C61.3721 35.736 61.0788 35.624 60.8548 35.4C60.6414 35.176 60.5348 34.888 60.5348 34.536C60.5348 34.184 60.6468 33.9013 60.8708 33.688C61.0948 33.464 61.3828 33.352 61.7348 33.352C62.0868 33.352 62.3694 33.464 62.5828 33.688C62.8068 33.912 62.9188 34.1947 62.9188 34.536C62.9188 34.888 62.8068 35.176 62.5828 35.4C62.3694 35.624 62.0868 35.736 61.7348 35.736ZM68.502 41.224C67.7127 41.224 67.0033 41.0107 66.374 40.584C65.7553 40.1573 65.2647 39.5173 64.902 38.664C64.55 37.8 64.374 36.7387 64.374 35.48C64.374 34.2213 64.55 33.1653 64.902 32.312C65.2647 31.448 65.7553 30.8027 66.374 30.376C67.0033 29.9493 67.7127 29.736 68.502 29.736C69.2913 29.736 69.9953 29.9493 70.614 30.376C71.2327 30.8027 71.718 31.448 72.07 32.312C72.4327 33.1653 72.614 34.2213 72.614 35.48C72.614 36.7387 72.4327 37.8 72.07 38.664C71.718 39.5173 71.2327 40.1573 70.614 40.584C69.9953 41.0107 69.2913 41.224 68.502 41.224ZM68.502 39.608C69.2807 39.608 69.8567 39.2773 70.23 38.616C70.6033 37.944 70.79 36.8987 70.79 35.48C70.79 34.0613 70.6033 33.0213 70.23 32.36C69.8567 31.688 69.2807 31.352 68.502 31.352C67.7233 31.352 67.1473 31.688 66.774 32.36C66.4007 33.0213 66.214 34.0613 66.214 35.48C66.214 36.8987 66.4007 37.944 66.774 38.616C67.1473 39.2773 67.7233 39.608 68.502 39.608ZM78.002 41.224C77.2127 41.224 76.5033 41.0107 75.874 40.584C75.2553 40.1573 74.7647 39.5173 74.402 38.664C74.05 37.8 73.874 36.7387 73.874 35.48C73.874 34.2213 74.05 33.1653 74.402 32.312C74.7647 31.448 75.2553 30.8027 75.874 30.376C76.5033 29.9493 77.2127 29.736 78.002 29.736C78.7913 29.736 79.4953 29.9493 80.114 30.376C80.7327 30.8027 81.218 31.448 81.57 32.312C81.9327 33.1653 82.114 34.2213 82.114 35.48C82.114 36.7387 81.9327 37.8 81.57 38.664C81.218 39.5173 80.7327 40.1573 80.114 40.584C79.4953 41.0107 78.7913 41.224 78.002 41.224ZM78.002 39.608C78.7807 39.608 79.3567 39.2773 79.73 38.616C80.1033 37.944 80.29 36.8987 80.29 35.48C80.29 34.0613 80.1033 33.0213 79.73 32.36C79.3567 31.688 78.7807 31.352 78.002 31.352C77.2233 31.352 76.6473 31.688 76.274 32.36C75.9007 33.0213 75.714 34.0613 75.714 35.48C75.714 36.8987 75.9007 37.944 76.274 38.616C76.6473 39.2773 77.2233 39.608 78.002 39.608ZM89.4816 42.92C88.703 42.1627 88.079 41.2133 87.6096 40.072C87.151 38.9307 86.9216 37.6133 86.9216 36.12C86.9216 34.6267 87.151 33.3093 87.6096 32.168C88.079 31.0267 88.703 30.0773 89.4816 29.32H91.1936C90.415 30.1733 89.807 31.1973 89.3696 32.392C88.943 33.576 88.7296 34.8187 88.7296 36.12C88.7296 37.4213 88.943 38.6693 89.3696 39.864C89.807 41.048 90.415 42.0667 91.1936 42.92H89.4816ZM97.2734 41.224C96.324 41.224 95.4707 41 94.7134 40.552C93.956 40.104 93.3587 39.448 92.9214 38.584C92.484 37.72 92.2654 36.6853 92.2654 35.48C92.2654 34.296 92.484 33.272 92.9214 32.408C93.3587 31.5333 93.956 30.872 94.7134 30.424C95.4707 29.9653 96.3294 29.736 97.2894 29.736C98.26 29.736 99.092 29.9387 99.7854 30.344C100.489 30.7493 101.039 31.352 101.433 32.152L100.009 33.224C99.732 32.648 99.3534 32.2053 98.8734 31.896C98.3934 31.5867 97.8654 31.432 97.2894 31.432C96.692 31.432 96.1534 31.592 95.6734 31.912C95.1934 32.2213 94.8147 32.6853 94.5374 33.304C94.2707 33.912 94.1374 34.6373 94.1374 35.48C94.1374 36.2907 94.2707 37.0053 94.5374 37.624C94.804 38.232 95.172 38.7013 95.6414 39.032C96.1214 39.3627 96.6654 39.528 97.2734 39.528C97.8814 39.528 98.42 39.3733 98.8894 39.064C99.3587 38.7547 99.732 38.312 100.009 37.736L101.433 38.808C101.028 39.5973 100.473 40.2 99.7694 40.616C99.0654 41.0213 98.2334 41.224 97.2734 41.224ZM110.306 41H102.658V39.352L107.97 31.656H102.834V29.96H110.13V31.608L104.834 39.304H110.306V41ZM112.038 42.616C112.657 42.104 113.019 41.608 113.126 41.128C112.753 41.128 112.454 41.0213 112.23 40.808C112.006 40.584 111.894 40.2907 111.894 39.928C111.894 39.576 112.001 39.2933 112.214 39.08C112.438 38.856 112.726 38.744 113.078 38.744C113.451 38.744 113.75 38.8773 113.974 39.144C114.209 39.4107 114.326 39.7787 114.326 40.248C114.326 40.9627 114.225 41.56 114.022 42.04C113.83 42.52 113.51 42.9947 113.062 43.464L112.038 42.616ZM127.293 41H120.029V29.96H127.165V31.656H121.885V34.472H126.349V36.184H121.885V39.304H127.293V41ZM131.583 41.224C130.772 41.224 130.164 40.9947 129.759 40.536C129.354 40.0667 129.151 39.4213 129.151 38.6V33.48H130.911V38.36C130.911 38.7867 131.012 39.1227 131.215 39.368C131.428 39.6133 131.738 39.736 132.143 39.736C132.495 39.736 132.815 39.64 133.103 39.448C133.391 39.2453 133.636 38.9733 133.839 38.632V33.48H135.599V41H133.999L133.839 39.976C133.615 40.3387 133.306 40.6373 132.911 40.872C132.527 41.1067 132.084 41.224 131.583 41.224ZM137.807 41V33.48H139.375L139.567 34.568C139.791 34.1307 140.068 33.8053 140.399 33.592C140.73 33.368 141.151 33.256 141.663 33.256C142.015 33.256 142.282 33.304 142.463 33.4V35.08C142.132 34.9307 141.77 34.856 141.375 34.856C140.991 34.856 140.644 34.9733 140.335 35.208C140.026 35.4427 139.77 35.768 139.567 36.184V41H137.807ZM146.945 41.224C146.263 41.224 145.644 41.0693 145.089 40.76C144.535 40.4507 144.092 39.9973 143.761 39.4C143.441 38.8027 143.281 38.0827 143.281 37.24C143.281 36.3973 143.441 35.6773 143.761 35.08C144.092 34.4827 144.535 34.0293 145.089 33.72C145.644 33.4107 146.263 33.256 146.945 33.256C147.628 33.256 148.247 33.4107 148.801 33.72C149.356 34.0293 149.793 34.4827 150.113 35.08C150.444 35.6773 150.609 36.3973 150.609 37.24C150.609 38.0827 150.444 38.8027 150.113 39.4C149.793 39.9973 149.356 40.4507 148.801 40.76C148.247 41.0693 147.628 41.224 146.945 41.224ZM146.945 39.72C147.532 39.72 147.996 39.512 148.337 39.096C148.679 38.6693 148.849 38.0507 148.849 37.24C148.849 36.4293 148.679 35.816 148.337 35.4C147.996 34.9733 147.532 34.76 146.945 34.76C146.359 34.76 145.895 34.9733 145.553 35.4C145.212 35.816 145.041 36.4293 145.041 37.24C145.041 38.0507 145.212 38.6693 145.553 39.096C145.895 39.512 146.359 39.72 146.945 39.72ZM152.385 44.04V33.48H153.905L154.017 34.312C154.273 33.9813 154.588 33.7253 154.961 33.544C155.335 33.352 155.756 33.256 156.225 33.256C156.823 33.256 157.372 33.4107 157.873 33.72C158.375 34.0293 158.775 34.4827 159.073 35.08C159.372 35.6773 159.521 36.3973 159.521 37.24C159.521 38.0827 159.372 38.8027 159.073 39.4C158.775 39.9973 158.375 40.4507 157.873 40.76C157.372 41.0693 156.823 41.224 156.225 41.224C155.361 41.224 154.668 40.952 154.145 40.408V44.04H152.385ZM155.777 39.72C156.332 39.72 156.796 39.5067 157.169 39.08C157.553 38.6427 157.745 38.0293 157.745 37.24C157.745 36.4507 157.553 35.8427 157.169 35.416C156.796 34.9787 156.332 34.76 155.777 34.76C155.127 34.76 154.583 35.064 154.145 35.672V38.808C154.572 39.416 155.116 39.72 155.777 39.72ZM164.684 41.224C163.916 41.224 163.244 41.064 162.668 40.744C162.092 40.424 161.644 39.9653 161.324 39.368C161.014 38.7707 160.86 38.0613 160.86 37.24C160.86 36.4187 161.02 35.7093 161.34 35.112C161.66 34.504 162.092 34.0453 162.636 33.736C163.19 33.416 163.804 33.256 164.476 33.256C165.574 33.256 166.417 33.6027 167.004 34.296C167.59 34.9787 167.884 35.896 167.884 37.048C167.884 37.1867 167.873 37.4053 167.852 37.704H162.604C162.689 38.3547 162.913 38.8667 163.276 39.24C163.649 39.6027 164.134 39.784 164.732 39.784C165.148 39.784 165.516 39.704 165.836 39.544C166.156 39.3733 166.449 39.128 166.716 38.808L167.74 39.896C167.356 40.344 166.924 40.68 166.444 40.904C165.964 41.1173 165.377 41.224 164.684 41.224ZM166.284 36.424C166.241 35.8373 166.06 35.4 165.74 35.112C165.42 34.824 164.993 34.68 164.46 34.68C163.969 34.68 163.564 34.8347 163.244 35.144C162.934 35.4427 162.732 35.8693 162.636 36.424H166.284ZM168.947 42.92C169.726 42.0667 170.329 41.048 170.755 39.864C171.193 38.6693 171.411 37.4213 171.411 36.12C171.411 34.8187 171.193 33.576 170.755 32.392C170.329 31.1973 169.726 30.1733 168.947 29.32H170.659C171.438 30.0773 172.057 31.0267 172.515 32.168C172.985 33.3093 173.219 34.6267 173.219 36.12C173.219 37.6133 172.985 38.9307 172.515 40.072C172.057 41.2133 171.438 42.1627 170.659 42.92H168.947Z" fill="white"/>
<path d="M14.02 65V56.72H17.248C18.024 56.72 18.628 56.956 19.06 57.428C19.5 57.892 19.72 58.524 19.72 59.324C19.72 60.124 19.5 60.76 19.06 61.232C18.628 61.696 18.024 61.928 17.248 61.928H14.884V65H14.02ZM17.212 61.112C17.732 61.112 18.136 60.968 18.424 60.68C18.712 60.384 18.856 59.932 18.856 59.324C18.856 58.716 18.712 58.268 18.424 57.98C18.136 57.684 17.732 57.536 17.212 57.536H14.884V61.112H17.212ZM23.2464 65.168C22.7504 65.168 22.3024 65.048 21.9024 64.808C21.5104 64.56 21.2024 64.212 20.9784 63.764C20.7544 63.308 20.6424 62.78 20.6424 62.18C20.6424 61.572 20.7544 61.044 20.9784 60.596C21.2024 60.14 21.5104 59.792 21.9024 59.552C22.3024 59.312 22.7504 59.192 23.2464 59.192C23.7424 59.192 24.1864 59.312 24.5784 59.552C24.9784 59.792 25.2904 60.14 25.5144 60.596C25.7384 61.044 25.8504 61.572 25.8504 62.18C25.8504 62.788 25.7384 63.32 25.5144 63.776C25.2904 64.224 24.9824 64.568 24.5904 64.808C24.1984 65.048 23.7504 65.168 23.2464 65.168ZM23.2464 64.472C23.7824 64.472 24.2144 64.276 24.5424 63.884C24.8704 63.484 25.0344 62.916 25.0344 62.18C25.0344 61.452 24.8704 60.888 24.5424 60.488C24.2144 60.088 23.7824 59.888 23.2464 59.888C22.7104 59.888 22.2784 60.088 21.9504 60.488C21.6224 60.88 21.4584 61.444 21.4584 62.18C21.4584 62.916 21.6224 63.484 21.9504 63.884C22.2784 64.276 22.7104 64.472 23.2464 64.472ZM29.2977 65H28.3137L26.6697 59.36H27.5097L28.7937 64.136L30.1737 59.36H31.1097L32.4897 64.136L33.7737 59.36H34.6137L32.9697 65H31.9857L30.6417 60.248L29.2977 65ZM38.0595 65.168C37.4995 65.168 37.0195 65.032 36.6195 64.76C36.2275 64.488 35.9315 64.124 35.7315 63.668C35.5315 63.212 35.4315 62.708 35.4315 62.156C35.4315 61.604 35.5315 61.104 35.7315 60.656C35.9395 60.2 36.2395 59.844 36.6315 59.588C37.0235 59.324 37.4835 59.192 38.0115 59.192C38.7155 59.192 39.2835 59.428 39.7155 59.9C40.1555 60.372 40.3755 61.048 40.3755 61.928C40.3755 62.112 40.3715 62.252 40.3635 62.348H36.2475C36.2795 63.004 36.4595 63.524 36.7875 63.908C37.1155 64.284 37.5475 64.472 38.0835 64.472C38.8195 64.472 39.3835 64.16 39.7755 63.536L40.3995 63.944C40.1035 64.392 39.7715 64.708 39.4035 64.892C39.0435 65.076 38.5955 65.168 38.0595 65.168ZM39.6075 61.652C39.5915 61.044 39.4315 60.6 39.1275 60.32C38.8235 60.032 38.4355 59.888 37.9635 59.888C37.5155 59.888 37.1395 60.04 36.8355 60.344C36.5395 60.648 36.3555 61.084 36.2835 61.652H39.6075ZM41.8975 65V59.36H42.5935L42.7135 60.152C42.9055 59.84 43.1295 59.604 43.3855 59.444C43.6495 59.276 43.9735 59.192 44.3575 59.192C44.6615 59.192 44.9175 59.236 45.1255 59.324V60.104C45.0215 60.056 44.8855 60.016 44.7175 59.984C44.5575 59.952 44.4135 59.936 44.2855 59.936C43.9415 59.936 43.6455 60.04 43.3975 60.248C43.1575 60.448 42.9295 60.728 42.7135 61.088V65H41.8975ZM48.3603 65.168C47.8003 65.168 47.3203 65.032 46.9202 64.76C46.5283 64.488 46.2323 64.124 46.0323 63.668C45.8323 63.212 45.7323 62.708 45.7323 62.156C45.7323 61.604 45.8323 61.104 46.0323 60.656C46.2403 60.2 46.5403 59.844 46.9323 59.588C47.3243 59.324 47.7843 59.192 48.3123 59.192C49.0163 59.192 49.5843 59.428 50.0163 59.9C50.4563 60.372 50.6763 61.048 50.6763 61.928C50.6763 62.112 50.6723 62.252 50.6643 62.348H46.5483C46.5803 63.004 46.7603 63.524 47.0883 63.908C47.4163 64.284 47.8483 64.472 48.3843 64.472C49.1203 64.472 49.6843 64.16 50.0763 63.536L50.7003 63.944C50.4043 64.392 50.0723 64.708 49.7043 64.892C49.3443 65.076 48.8963 65.168 48.3603 65.168ZM49.9083 61.652C49.8923 61.044 49.7323 60.6 49.4283 60.32C49.1243 60.032 48.7363 59.888 48.2643 59.888C47.8163 59.888 47.4403 60.04 47.1363 60.344C46.8403 60.648 46.6563 61.084 46.5843 61.652H49.9083ZM54.2623 65.168C53.8303 65.168 53.4263 65.052 53.0503 64.82C52.6743 64.588 52.3743 64.248 52.1503 63.8C51.9263 63.352 51.8143 62.812 51.8143 62.18C51.8143 61.548 51.9263 61.008 52.1503 60.56C52.3743 60.112 52.6743 59.772 53.0503 59.54C53.4263 59.308 53.8303 59.192 54.2623 59.192C54.6543 59.192 55.0143 59.272 55.3423 59.432C55.6703 59.592 55.9223 59.804 56.0983 60.068V56.24H56.9143V65H56.1943L56.1223 64.256C55.9463 64.52 55.6903 64.74 55.3543 64.916C55.0263 65.084 54.6623 65.168 54.2623 65.168ZM54.4183 64.472C55.0903 64.472 55.6503 64.12 56.0983 63.416V60.944C55.6503 60.24 55.0903 59.888 54.4183 59.888C54.1143 59.888 53.8263 59.968 53.5543 60.128C53.2903 60.28 53.0743 60.528 52.9063 60.872C52.7383 61.216 52.6543 61.652 52.6543 62.18C52.6543 62.708 52.7383 63.144 52.9063 63.488C53.0743 63.832 53.2903 64.084 53.5543 64.244C53.8263 64.396 54.1143 64.472 54.4183 64.472ZM64.1198 65.168C63.7198 65.168 63.3518 65.084 63.0158 64.916C62.6878 64.74 62.4358 64.52 62.2598 64.256L62.1878 65H61.4678V56.24H62.2838V60.068C62.4598 59.804 62.7118 59.592 63.0398 59.432C63.3678 59.272 63.7278 59.192 64.1198 59.192C64.5518 59.192 64.9558 59.308 65.3318 59.54C65.7078 59.772 66.0078 60.112 66.2318 60.56C66.4558 61.008 66.5678 61.548 66.5678 62.18C66.5678 62.812 66.4558 63.352 66.2318 63.8C66.0078 64.248 65.7078 64.588 65.3318 64.82C64.9558 65.052 64.5518 65.168 64.1198 65.168ZM63.9638 64.472C64.2678 64.472 64.5518 64.396 64.8158 64.244C65.0878 64.084 65.3078 63.832 65.4758 63.488C65.6438 63.144 65.7278 62.708 65.7278 62.18C65.7278 61.652 65.6438 61.216 65.4758 60.872C65.3078 60.528 65.0878 60.28 64.8158 60.128C64.5518 59.968 64.2678 59.888 63.9638 59.888C63.2918 59.888 62.7318 60.24 62.2838 60.944V63.416C62.7318 64.12 63.2918 64.472 63.9638 64.472ZM67.8317 67.388C67.5677 67.388 67.3197 67.344 67.0877 67.256V66.536C67.3517 66.64 67.5877 66.692 67.7957 66.692C68.1237 66.692 68.3837 66.596 68.5757 66.404C68.7757 66.212 68.9597 65.896 69.1277 65.456L69.2957 65.024L67.1477 59.36H68.0117L69.6797 63.992L71.4317 59.36H72.2477L69.7397 65.804C69.5317 66.34 69.2837 66.736 68.9957 66.992C68.7077 67.256 68.3197 67.388 67.8317 67.388Z" fill="#949AA4"/>
<path d="M75 61C75 56.5817 78.5817 53 83 53C87.4183 53 91 56.5817 91 61C91 65.4183 87.4183 69 83 69C78.5817 69 75 65.4183 75 61Z" fill="#5865F2"/>
<path fill-rule="evenodd" clip-rule="evenodd" d="M83 56.1562C80.3249 56.1562 78.1562 58.3249 78.1562 61C78.1562 63.6751 80.3249 65.8438 83 65.8438C85.6751 65.8438 87.8438 63.6751 87.8438 61C87.8438 58.3249 85.6751 56.1562 83 56.1562ZM83 57.9323C82.8217 57.9323 82.6771 58.0769 82.6771 58.2552V61C82.6771 61.0671 82.6975 61.1294 82.7326 61.1811C82.7504 61.2074 82.7722 61.2313 82.7979 61.2519C82.8118 61.2631 82.8267 61.2731 82.8423 61.2819L84.8655 62.4736C85.0192 62.5642 85.2172 62.513 85.3077 62.3593C85.3982 62.2056 85.347 62.0077 85.1933 61.9172L83.3229 60.8154V58.2552C83.3229 58.0769 83.1783 57.9323 83 57.9323Z" fill="white"/>
<path d="M96.624 65H95.76V57.536H93.192V56.72H99.192V57.536H96.624V65ZM100.755 57.956C100.595 57.956 100.463 57.904 100.359 57.8C100.255 57.696 100.203 57.564 100.203 57.404C100.203 57.244 100.255 57.112 100.359 57.008C100.463 56.904 100.595 56.852 100.755 56.852C100.915 56.852 101.047 56.904 101.151 57.008C101.255 57.112 101.307 57.244 101.307 57.404C101.307 57.564 101.255 57.696 101.151 57.8C101.047 57.904 100.915 57.956 100.755 57.956ZM101.163 65H100.347V59.36H101.163V65ZM109.077 59.192C109.613 59.192 110.049 59.356 110.385 59.684C110.729 60.012 110.901 60.48 110.901 61.088V65H110.085V61.088C110.085 60.704 109.969 60.404 109.737 60.188C109.513 59.972 109.209 59.864 108.825 59.864C108.249 59.864 107.773 60.192 107.397 60.848V65H106.581V61.088C106.581 60.704 106.465 60.404 106.233 60.188C106.009 59.972 105.705 59.864 105.321 59.864C105.033 59.864 104.773 59.944 104.541 60.104C104.309 60.256 104.093 60.504 103.893 60.848V65H103.077V59.36H103.761L103.893 60.056C104.277 59.48 104.833 59.192 105.561 59.192C105.969 59.192 106.321 59.284 106.617 59.468C106.913 59.652 107.121 59.9 107.241 60.212C107.425 59.908 107.677 59.664 107.997 59.48C108.325 59.288 108.685 59.192 109.077 59.192ZM115.059 65.168C114.499 65.168 114.019 65.032 113.619 64.76C113.227 64.488 112.931 64.124 112.731 63.668C112.531 63.212 112.431 62.708 112.431 62.156C112.431 61.604 112.531 61.104 112.731 60.656C112.939 60.2 113.239 59.844 113.631 59.588C114.023 59.324 114.483 59.192 115.011 59.192C115.715 59.192 116.283 59.428 116.715 59.9C117.155 60.372 117.375 61.048 117.375 61.928C117.375 62.112 117.371 62.252 117.363 62.348H113.247C113.279 63.004 113.459 63.524 113.787 63.908C114.115 64.284 114.547 64.472 115.083 64.472C115.819 64.472 116.383 64.16 116.775 63.536L117.399 63.944C117.103 64.392 116.771 64.708 116.403 64.892C116.043 65.076 115.595 65.168 115.059 65.168ZM116.607 61.652C116.591 61.044 116.431 60.6 116.127 60.32C115.823 60.032 115.435 59.888 114.963 59.888C114.515 59.888 114.139 60.04 113.835 60.344C113.539 60.648 113.355 61.084 113.283 61.652H116.607ZM122.678 65H118.454V64.304L121.658 60.056H118.61V59.36H122.534V60.056L119.33 64.304H122.678V65ZM126.379 65.168C125.883 65.168 125.435 65.048 125.035 64.808C124.643 64.56 124.335 64.212 124.111 63.764C123.887 63.308 123.775 62.78 123.775 62.18C123.775 61.572 123.887 61.044 124.111 60.596C124.335 60.14 124.643 59.792 125.035 59.552C125.435 59.312 125.883 59.192 126.379 59.192C126.875 59.192 127.319 59.312 127.711 59.552C128.111 59.792 128.423 60.14 128.647 60.596C128.871 61.044 128.983 61.572 128.983 62.18C128.983 62.788 128.871 63.32 128.647 63.776C128.423 64.224 128.115 64.568 127.723 64.808C127.331 65.048 126.883 65.168 126.379 65.168ZM126.379 64.472C126.915 64.472 127.347 64.276 127.675 63.884C128.003 63.484 128.167 62.916 128.167 62.18C128.167 61.452 128.003 60.888 127.675 60.488C127.347 60.088 126.915 59.888 126.379 59.888C125.843 59.888 125.411 60.088 125.083 60.488C124.755 60.88 124.591 61.444 124.591 62.18C124.591 62.916 124.755 63.484 125.083 63.884C125.411 64.276 125.843 64.472 126.379 64.472ZM130.523 65V59.36H131.219L131.339 60.104C131.531 59.832 131.779 59.612 132.083 59.444C132.387 59.276 132.723 59.192 133.09 59.192C133.691 59.192 134.147 59.364 134.459 59.708C134.779 60.044 134.939 60.528 134.939 61.16V65H134.123V61.16C134.123 60.296 133.723 59.864 132.923 59.864C132.603 59.864 132.319 59.948 132.071 60.116C131.823 60.276 131.579 60.536 131.339 60.896V65H130.523ZM139.106 65.168C138.546 65.168 138.066 65.032 137.666 64.76C137.274 64.488 136.978 64.124 136.778 63.668C136.578 63.212 136.478 62.708 136.478 62.156C136.478 61.604 136.578 61.104 136.778 60.656C136.986 60.2 137.286 59.844 137.678 59.588C138.07 59.324 138.53 59.192 139.058 59.192C139.762 59.192 140.33 59.428 140.762 59.9C141.202 60.372 141.422 61.048 141.422 61.928C141.422 62.112 141.418 62.252 141.41 62.348H137.294C137.326 63.004 137.506 63.524 137.834 63.908C138.162 64.284 138.594 64.472 139.13 64.472C139.866 64.472 140.43 64.16 140.822 63.536L141.446 63.944C141.15 64.392 140.818 64.708 140.45 64.892C140.09 65.076 139.642 65.168 139.106 65.168ZM140.654 61.652C140.638 61.044 140.478 60.6 140.174 60.32C139.87 60.032 139.482 59.888 139.01 59.888C138.562 59.888 138.186 60.04 137.882 60.344C137.586 60.648 137.402 61.084 137.33 61.652H140.654ZM144.732 65.168C144.284 65.168 143.864 65.072 143.472 64.88C143.08 64.68 142.772 64.396 142.548 64.028L143.16 63.524C143.352 63.852 143.58 64.092 143.844 64.244C144.116 64.396 144.436 64.472 144.804 64.472C145.156 64.472 145.44 64.38 145.656 64.196C145.872 64.012 145.98 63.764 145.98 63.452C145.98 63.252 145.928 63.096 145.824 62.984C145.728 62.864 145.592 62.772 145.416 62.708C145.24 62.644 144.992 62.572 144.672 62.492L144.36 62.42C143.872 62.308 143.476 62.14 143.172 61.916C142.876 61.684 142.728 61.32 142.728 60.824C142.728 60.304 142.908 59.904 143.268 59.624C143.628 59.336 144.092 59.192 144.66 59.192C145.132 59.192 145.524 59.28 145.836 59.456C146.148 59.624 146.428 59.884 146.676 60.236L146.112 60.716C145.92 60.428 145.708 60.22 145.476 60.092C145.244 59.956 144.976 59.888 144.672 59.888C144.328 59.888 144.04 59.968 143.808 60.128C143.584 60.288 143.472 60.508 143.472 60.788C143.472 61.068 143.58 61.276 143.796 61.412C144.02 61.54 144.396 61.664 144.924 61.784L145.236 61.856C145.7 61.968 146.076 62.132 146.364 62.348C146.652 62.564 146.796 62.912 146.796 63.392C146.796 63.944 146.604 64.38 146.22 64.7C145.844 65.012 145.348 65.168 144.732 65.168Z" fill="white"/>
<rect x="0.5" y="0.5" width="241" height="73" rx="4.5" stroke="white" stroke-opacity="0.24"/>
</svg>
