<svg width="242" height="74" viewBox="0 0 242 74" fill="none" xmlns="http://www.w3.org/2000/svg">
<path d="M17.152 21H15.76V13.992H13.288V12.72H19.624V13.992H17.152V21ZM22.2181 21H20.8261V12.72H22.2181V21ZM25.153 21H23.737L24.685 12.72H26.665L28.321 18.132L29.977 12.72H31.909L32.857 21H31.441L30.745 14.412L29.041 19.74H27.553L25.837 14.412L25.153 21ZM39.8327 21H34.3847V12.72H39.7367V13.992H35.7767V16.104H39.1247V17.388H35.7767V19.728H39.8327V21ZM46.6984 21H40.9624V19.764L44.9464 13.992H41.0944V12.72H46.5664V13.956L42.5944 19.728H46.6984V21ZM51.1141 21.168C50.3861 21.168 49.7421 21 49.1821 20.664C48.6221 20.32 48.1861 19.824 47.8741 19.176C47.5621 18.528 47.4061 17.756 47.4061 16.86C47.4061 15.964 47.5621 15.192 47.8741 14.544C48.1861 13.896 48.6221 13.404 49.1821 13.068C49.7421 12.724 50.3861 12.552 51.1141 12.552C51.8421 12.552 52.4861 12.724 53.0461 13.068C53.6141 13.404 54.0541 13.896 54.3661 14.544C54.6781 15.192 54.8341 15.964 54.8341 16.86C54.8341 17.756 54.6781 18.528 54.3661 19.176C54.0541 19.824 53.6141 20.32 53.0461 20.664C52.4861 21 51.8421 21.168 51.1141 21.168ZM51.1141 19.896C51.8501 19.896 52.4181 19.636 52.8181 19.116C53.2261 18.588 53.4301 17.836 53.4301 16.86C53.4301 15.884 53.2261 15.136 52.8181 14.616C52.4181 14.088 51.8501 13.824 51.1141 13.824C50.3861 13.824 49.8181 14.088 49.4101 14.616C49.0101 15.136 48.8101 15.884 48.8101 16.86C48.8101 17.836 49.0101 18.588 49.4101 19.116C49.8181 19.636 50.3861 19.896 51.1141 19.896ZM57.6201 21H56.2401V12.72H57.9681L61.5441 19.008V12.72H62.9241V21H61.2441L57.6201 14.688V21ZM70.1959 21H64.7479V12.72H70.0999V13.992H66.1399V16.104H69.4879V17.388H66.1399V19.728H70.1959V21Z" fill="#B5B9C0"/>
<path d="M18.536 41.224C17.1707 41.224 16.1093 40.8613 15.352 40.136C14.5947 39.4 14.216 38.28 14.216 36.776V29.96H16.072V36.744C16.072 37.6827 16.2853 38.3813 16.712 38.84C17.1493 39.2987 17.7573 39.528 18.536 39.528C19.3147 39.528 19.9173 39.2987 20.344 38.84C20.7813 38.3813 21 37.6827 21 36.744V29.96H22.856V36.776C22.856 38.28 22.4773 39.4 21.72 40.136C20.9627 40.8613 19.9013 41.224 18.536 41.224ZM29.6141 41H27.7581V31.656H24.4621V29.96H32.9101V31.656H29.6141V41ZM38.4765 41.224C37.5272 41.224 36.6738 41 35.9165 40.552C35.1592 40.104 34.5618 39.448 34.1245 38.584C33.6872 37.72 33.4685 36.6853 33.4685 35.48C33.4685 34.296 33.6872 33.272 34.1245 32.408C34.5618 31.5333 35.1592 30.872 35.9165 30.424C36.6738 29.9653 37.5325 29.736 38.4925 29.736C39.4632 29.736 40.2952 29.9387 40.9885 30.344C41.6925 30.7493 42.2418 31.352 42.6365 32.152L41.2125 33.224C40.9352 32.648 40.5565 32.2053 40.0765 31.896C39.5965 31.5867 39.0685 31.432 38.4925 31.432C37.8952 31.432 37.3565 31.592 36.8765 31.912C36.3965 32.2213 36.0178 32.6853 35.7405 33.304C35.4738 33.912 35.3405 34.6373 35.3405 35.48C35.3405 36.2907 35.4738 37.0053 35.7405 37.624C36.0072 38.232 36.3752 38.7013 36.8445 39.032C37.3245 39.3627 37.8685 39.528 38.4765 39.528C39.0845 39.528 39.6232 39.3733 40.0925 39.064C40.5618 38.7547 40.9352 38.312 41.2125 37.736L42.6365 38.808C42.2312 39.5973 41.6765 40.2 40.9725 40.616C40.2685 41.0213 39.4365 41.224 38.4765 41.224ZM47.8443 39.368H46.3083V36.744H43.6842V35.208H46.3083V32.584H47.8443V35.208H50.4683V36.744H47.8443V39.368ZM55.416 41.224C54.6587 41.224 53.992 41.0853 53.416 40.808C52.8507 40.5307 52.4133 40.1413 52.104 39.64C51.8053 39.1387 51.656 38.5733 51.656 37.944C51.656 37.2507 51.8213 36.6693 52.152 36.2C52.4933 35.7307 52.9573 35.3787 53.544 35.144C53.0427 34.92 52.6533 34.5947 52.376 34.168C52.1093 33.7307 51.976 33.2507 51.976 32.728C51.976 32.152 52.1093 31.64 52.376 31.192C52.6533 30.7333 53.0533 30.376 53.576 30.12C54.0987 29.864 54.712 29.736 55.416 29.736C56.12 29.736 56.7333 29.864 57.256 30.12C57.7787 30.376 58.1733 30.7333 58.44 31.192C58.7173 31.64 58.856 32.152 58.856 32.728C58.856 33.2507 58.7173 33.7307 58.44 34.168C58.1733 34.5947 57.7893 34.92 57.288 35.144C57.8747 35.3787 58.3333 35.736 58.664 36.216C59.0053 36.6853 59.176 37.256 59.176 37.928C59.176 38.568 59.0213 39.1387 58.712 39.64C58.4133 40.1307 57.976 40.52 57.4 40.808C56.8347 41.0853 56.1733 41.224 55.416 41.224ZM55.416 34.536C55.9387 34.536 56.3547 34.3867 56.664 34.088C56.984 33.7787 57.144 33.384 57.144 32.904C57.144 32.4133 56.9893 32.0187 56.68 31.72C56.3707 31.4107 55.9493 31.256 55.416 31.256C54.8827 31.256 54.4613 31.4107 54.152 31.72C53.8427 32.0187 53.688 32.4133 53.688 32.904C53.688 33.384 53.8427 33.7787 54.152 34.088C54.472 34.3867 54.8933 34.536 55.416 34.536ZM55.416 39.704C56.0133 39.704 56.488 39.5387 56.84 39.208C57.2027 38.8667 57.384 38.408 57.384 37.832C57.384 37.256 57.2027 36.7973 56.84 36.456C56.488 36.1147 56.0133 35.944 55.416 35.944C54.8187 35.944 54.3387 36.1147 53.976 36.456C53.624 36.7973 53.448 37.256 53.448 37.832C53.448 38.408 53.624 38.8667 53.976 39.208C54.3387 39.5387 54.8187 39.704 55.416 39.704ZM61.8441 41.128C61.4815 41.128 61.1881 41.016 60.9641 40.792C60.7508 40.568 60.6441 40.28 60.6441 39.928C60.6441 39.576 60.7561 39.2933 60.9801 39.08C61.2041 38.856 61.4921 38.744 61.8441 38.744C62.1961 38.744 62.4788 38.856 62.6921 39.08C62.9161 39.304 63.0281 39.5867 63.0281 39.928C63.0281 40.28 62.9161 40.568 62.6921 40.792C62.4788 41.016 62.1961 41.128 61.8441 41.128ZM61.8441 35.736C61.4815 35.736 61.1881 35.624 60.9641 35.4C60.7508 35.176 60.6441 34.888 60.6441 34.536C60.6441 34.184 60.7561 33.9013 60.9801 33.688C61.2041 33.464 61.4921 33.352 61.8441 33.352C62.1961 33.352 62.4788 33.464 62.6921 33.688C62.9161 33.912 63.0281 34.1947 63.0281 34.536C63.0281 34.888 62.9161 35.176 62.6921 35.4C62.4788 35.624 62.1961 35.736 61.8441 35.736ZM68.6114 41.224C67.822 41.224 67.1127 41.0107 66.4834 40.584C65.8647 40.1573 65.374 39.5173 65.0114 38.664C64.6594 37.8 64.4834 36.7387 64.4834 35.48C64.4834 34.2213 64.6594 33.1653 65.0114 32.312C65.374 31.448 65.8647 30.8027 66.4834 30.376C67.1127 29.9493 67.822 29.736 68.6114 29.736C69.4007 29.736 70.1047 29.9493 70.7234 30.376C71.342 30.8027 71.8274 31.448 72.1794 32.312C72.542 33.1653 72.7234 34.2213 72.7234 35.48C72.7234 36.7387 72.542 37.8 72.1794 38.664C71.8274 39.5173 71.342 40.1573 70.7234 40.584C70.1047 41.0107 69.4007 41.224 68.6114 41.224ZM68.6114 39.608C69.39 39.608 69.966 39.2773 70.3394 38.616C70.7127 37.944 70.8994 36.8987 70.8994 35.48C70.8994 34.0613 70.7127 33.0213 70.3394 32.36C69.966 31.688 69.39 31.352 68.6114 31.352C67.8327 31.352 67.2567 31.688 66.8834 32.36C66.51 33.0213 66.3234 34.0613 66.3234 35.48C66.3234 36.8987 66.51 37.944 66.8834 38.616C67.2567 39.2773 67.8327 39.608 68.6114 39.608ZM78.1114 41.224C77.322 41.224 76.6127 41.0107 75.9834 40.584C75.3647 40.1573 74.874 39.5173 74.5114 38.664C74.1594 37.8 73.9834 36.7387 73.9834 35.48C73.9834 34.2213 74.1594 33.1653 74.5114 32.312C74.874 31.448 75.3647 30.8027 75.9834 30.376C76.6127 29.9493 77.322 29.736 78.1114 29.736C78.9007 29.736 79.6047 29.9493 80.2234 30.376C80.842 30.8027 81.3274 31.448 81.6794 32.312C82.042 33.1653 82.2234 34.2213 82.2234 35.48C82.2234 36.7387 82.042 37.8 81.6794 38.664C81.3274 39.5173 80.842 40.1573 80.2234 40.584C79.6047 41.0107 78.9007 41.224 78.1114 41.224ZM78.1114 39.608C78.89 39.608 79.466 39.2773 79.8394 38.616C80.2127 37.944 80.3994 36.8987 80.3994 35.48C80.3994 34.0613 80.2127 33.0213 79.8394 32.36C79.466 31.688 78.89 31.352 78.1114 31.352C77.3327 31.352 76.7567 31.688 76.3834 32.36C76.01 33.0213 75.8234 34.0613 75.8234 35.48C75.8234 36.8987 76.01 37.944 76.3834 38.616C76.7567 39.2773 77.3327 39.608 78.1114 39.608ZM89.591 42.92C88.8123 42.1627 88.1883 41.2133 87.719 40.072C87.2603 38.9307 87.031 37.6133 87.031 36.12C87.031 34.6267 87.2603 33.3093 87.719 32.168C88.1883 31.0267 88.8123 30.0773 89.591 29.32H91.303C90.5243 30.1733 89.9163 31.1973 89.479 32.392C89.0523 33.576 88.839 34.8187 88.839 36.12C88.839 37.4213 89.0523 38.6693 89.479 39.864C89.9163 41.048 90.5243 42.0667 91.303 42.92H89.591ZM97.2548 41H95.3988V31.656H92.1028V29.96H100.551V31.656H97.2548V41ZM105.719 41H103.671L101.351 29.96H103.255L104.839 38.264L106.807 31.56H108.967L110.935 38.264L112.519 29.96H114.359L112.023 41H109.975L107.847 33.672L105.719 41ZM114.46 42.616C115.079 42.104 115.441 41.608 115.548 41.128C115.175 41.128 114.876 41.0213 114.652 40.808C114.428 40.584 114.316 40.2907 114.316 39.928C114.316 39.576 114.423 39.2933 114.636 39.08C114.86 38.856 115.148 38.744 115.5 38.744C115.873 38.744 116.172 38.8773 116.396 39.144C116.631 39.4107 116.748 39.7787 116.748 40.248C116.748 40.9627 116.647 41.56 116.444 42.04C116.252 42.52 115.932 42.9947 115.484 43.464L114.46 42.616ZM131.874 41H129.858L128.978 38.536H124.338L123.458 41H121.442L125.634 29.96H127.682L131.874 41ZM126.658 31.992L124.946 36.824H128.37L126.658 31.992ZM135.695 41.224C135.055 41.224 134.463 41.096 133.919 40.84C133.375 40.584 132.943 40.2 132.623 39.688L133.823 38.712C134.068 39.096 134.351 39.3787 134.671 39.56C134.991 39.7413 135.375 39.832 135.823 39.832C136.175 39.832 136.463 39.752 136.687 39.592C136.911 39.4213 137.023 39.192 137.023 38.904C137.023 38.6267 136.911 38.4133 136.687 38.264C136.463 38.104 136.095 37.9707 135.583 37.864L135.119 37.768C134.436 37.6293 133.892 37.3947 133.487 37.064C133.092 36.7333 132.895 36.2373 132.895 35.576C132.895 34.8187 133.156 34.2427 133.679 33.848C134.212 33.4533 134.906 33.256 135.759 33.256C136.41 33.256 136.954 33.368 137.391 33.592C137.828 33.816 138.207 34.1413 138.527 34.568L137.375 35.56C136.927 34.952 136.367 34.648 135.695 34.648C135.364 34.648 135.082 34.7227 134.847 34.872C134.612 35.0107 134.495 35.208 134.495 35.464C134.495 35.7307 134.618 35.9333 134.863 36.072C135.108 36.2107 135.524 36.3387 136.111 36.456L136.495 36.536C137.978 36.8027 138.719 37.5333 138.719 38.728C138.719 39.5173 138.442 40.1307 137.887 40.568C137.343 41.0053 136.612 41.224 135.695 41.224ZM141.297 32.008C140.966 32.008 140.705 31.912 140.513 31.72C140.321 31.5173 140.225 31.256 140.225 30.936C140.225 30.6053 140.321 30.344 140.513 30.152C140.705 29.9493 140.966 29.848 141.297 29.848C141.627 29.848 141.889 29.9493 142.081 30.152C142.283 30.344 142.385 30.6053 142.385 30.936C142.385 31.256 142.283 31.5173 142.081 31.72C141.889 31.912 141.627 32.008 141.297 32.008ZM142.177 41H140.417V33.48H142.177V41ZM146.497 41.224C145.825 41.224 145.265 41.0267 144.817 40.632C144.369 40.2373 144.145 39.6827 144.145 38.968C144.145 37.2827 145.681 36.424 148.753 36.392V36.168C148.753 35.7093 148.62 35.352 148.353 35.096C148.087 34.84 147.713 34.712 147.233 34.712C146.892 34.712 146.54 34.7867 146.177 34.936C145.825 35.0747 145.495 35.288 145.185 35.576L144.321 34.472C144.684 34.088 145.127 33.7893 145.649 33.576C146.172 33.3627 146.732 33.256 147.329 33.256C149.452 33.256 150.513 34.2267 150.513 36.168V41H148.897L148.753 40.056C148.551 40.3653 148.252 40.6373 147.857 40.872C147.473 41.1067 147.02 41.224 146.497 41.224ZM146.945 39.816C147.639 39.816 148.241 39.48 148.753 38.808V37.56C147.772 37.592 147.047 37.72 146.577 37.944C146.108 38.1573 145.873 38.472 145.873 38.888C145.873 39.1867 145.969 39.416 146.161 39.576C146.353 39.736 146.615 39.816 146.945 39.816ZM152.01 42.92C152.788 42.0667 153.391 41.048 153.818 39.864C154.255 38.6693 154.474 37.4213 154.474 36.12C154.474 34.8187 154.255 33.576 153.818 32.392C153.391 31.1973 152.788 30.1733 152.01 29.32H153.722C154.5 30.0773 155.119 31.0267 155.578 32.168C156.047 33.3093 156.282 34.6267 156.282 36.12C156.282 37.6133 156.047 38.9307 155.578 40.072C155.119 41.2133 154.5 42.1627 153.722 42.92H152.01Z" fill="white"/>
<path d="M14.02 65V56.72H17.248C18.024 56.72 18.628 56.956 19.06 57.428C19.5 57.892 19.72 58.524 19.72 59.324C19.72 60.124 19.5 60.76 19.06 61.232C18.628 61.696 18.024 61.928 17.248 61.928H14.884V65H14.02ZM17.212 61.112C17.732 61.112 18.136 60.968 18.424 60.68C18.712 60.384 18.856 59.932 18.856 59.324C18.856 58.716 18.712 58.268 18.424 57.98C18.136 57.684 17.732 57.536 17.212 57.536H14.884V61.112H17.212ZM23.2464 65.168C22.7504 65.168 22.3024 65.048 21.9024 64.808C21.5104 64.56 21.2024 64.212 20.9784 63.764C20.7544 63.308 20.6424 62.78 20.6424 62.18C20.6424 61.572 20.7544 61.044 20.9784 60.596C21.2024 60.14 21.5104 59.792 21.9024 59.552C22.3024 59.312 22.7504 59.192 23.2464 59.192C23.7424 59.192 24.1864 59.312 24.5784 59.552C24.9784 59.792 25.2904 60.14 25.5144 60.596C25.7384 61.044 25.8504 61.572 25.8504 62.18C25.8504 62.788 25.7384 63.32 25.5144 63.776C25.2904 64.224 24.9824 64.568 24.5904 64.808C24.1984 65.048 23.7504 65.168 23.2464 65.168ZM23.2464 64.472C23.7824 64.472 24.2144 64.276 24.5424 63.884C24.8704 63.484 25.0344 62.916 25.0344 62.18C25.0344 61.452 24.8704 60.888 24.5424 60.488C24.2144 60.088 23.7824 59.888 23.2464 59.888C22.7104 59.888 22.2784 60.088 21.9504 60.488C21.6224 60.88 21.4584 61.444 21.4584 62.18C21.4584 62.916 21.6224 63.484 21.9504 63.884C22.2784 64.276 22.7104 64.472 23.2464 64.472ZM29.2977 65H28.3137L26.6697 59.36H27.5097L28.7937 64.136L30.1737 59.36H31.1097L32.4897 64.136L33.7737 59.36H34.6137L32.9697 65H31.9857L30.6417 60.248L29.2977 65ZM38.0595 65.168C37.4995 65.168 37.0195 65.032 36.6195 64.76C36.2275 64.488 35.9315 64.124 35.7315 63.668C35.5315 63.212 35.4315 62.708 35.4315 62.156C35.4315 61.604 35.5315 61.104 35.7315 60.656C35.9395 60.2 36.2395 59.844 36.6315 59.588C37.0235 59.324 37.4835 59.192 38.0115 59.192C38.7155 59.192 39.2835 59.428 39.7155 59.9C40.1555 60.372 40.3755 61.048 40.3755 61.928C40.3755 62.112 40.3715 62.252 40.3635 62.348H36.2475C36.2795 63.004 36.4595 63.524 36.7875 63.908C37.1155 64.284 37.5475 64.472 38.0835 64.472C38.8195 64.472 39.3835 64.16 39.7755 63.536L40.3995 63.944C40.1035 64.392 39.7715 64.708 39.4035 64.892C39.0435 65.076 38.5955 65.168 38.0595 65.168ZM39.6075 61.652C39.5915 61.044 39.4315 60.6 39.1275 60.32C38.8235 60.032 38.4355 59.888 37.9635 59.888C37.5155 59.888 37.1395 60.04 36.8355 60.344C36.5395 60.648 36.3555 61.084 36.2835 61.652H39.6075ZM41.8975 65V59.36H42.5935L42.7135 60.152C42.9055 59.84 43.1295 59.604 43.3855 59.444C43.6495 59.276 43.9735 59.192 44.3575 59.192C44.6615 59.192 44.9175 59.236 45.1255 59.324V60.104C45.0215 60.056 44.8855 60.016 44.7175 59.984C44.5575 59.952 44.4135 59.936 44.2855 59.936C43.9415 59.936 43.6455 60.04 43.3975 60.248C43.1575 60.448 42.9295 60.728 42.7135 61.088V65H41.8975ZM48.3603 65.168C47.8003 65.168 47.3203 65.032 46.9202 64.76C46.5283 64.488 46.2323 64.124 46.0323 63.668C45.8323 63.212 45.7323 62.708 45.7323 62.156C45.7323 61.604 45.8323 61.104 46.0323 60.656C46.2403 60.2 46.5403 59.844 46.9323 59.588C47.3243 59.324 47.7843 59.192 48.3123 59.192C49.0163 59.192 49.5843 59.428 50.0163 59.9C50.4563 60.372 50.6763 61.048 50.6763 61.928C50.6763 62.112 50.6723 62.252 50.6643 62.348H46.5483C46.5803 63.004 46.7603 63.524 47.0883 63.908C47.4163 64.284 47.8483 64.472 48.3843 64.472C49.1203 64.472 49.6843 64.16 50.0763 63.536L50.7003 63.944C50.4043 64.392 50.0723 64.708 49.7043 64.892C49.3443 65.076 48.8963 65.168 48.3603 65.168ZM49.9083 61.652C49.8923 61.044 49.7323 60.6 49.4283 60.32C49.1243 60.032 48.7363 59.888 48.2643 59.888C47.8163 59.888 47.4403 60.04 47.1363 60.344C46.8403 60.648 46.6563 61.084 46.5843 61.652H49.9083ZM54.2623 65.168C53.8303 65.168 53.4263 65.052 53.0503 64.82C52.6743 64.588 52.3743 64.248 52.1503 63.8C51.9263 63.352 51.8143 62.812 51.8143 62.18C51.8143 61.548 51.9263 61.008 52.1503 60.56C52.3743 60.112 52.6743 59.772 53.0503 59.54C53.4263 59.308 53.8303 59.192 54.2623 59.192C54.6543 59.192 55.0143 59.272 55.3423 59.432C55.6703 59.592 55.9223 59.804 56.0983 60.068V56.24H56.9143V65H56.1943L56.1223 64.256C55.9463 64.52 55.6903 64.74 55.3543 64.916C55.0263 65.084 54.6623 65.168 54.2623 65.168ZM54.4183 64.472C55.0903 64.472 55.6503 64.12 56.0983 63.416V60.944C55.6503 60.24 55.0903 59.888 54.4183 59.888C54.1143 59.888 53.8263 59.968 53.5543 60.128C53.2903 60.28 53.0743 60.528 52.9063 60.872C52.7383 61.216 52.6543 61.652 52.6543 62.18C52.6543 62.708 52.7383 63.144 52.9063 63.488C53.0743 63.832 53.2903 64.084 53.5543 64.244C53.8263 64.396 54.1143 64.472 54.4183 64.472ZM64.1198 65.168C63.7198 65.168 63.3518 65.084 63.0158 64.916C62.6878 64.74 62.4358 64.52 62.2598 64.256L62.1878 65H61.4678V56.24H62.2838V60.068C62.4598 59.804 62.7118 59.592 63.0398 59.432C63.3678 59.272 63.7278 59.192 64.1198 59.192C64.5518 59.192 64.9558 59.308 65.3318 59.54C65.7078 59.772 66.0078 60.112 66.2318 60.56C66.4558 61.008 66.5678 61.548 66.5678 62.18C66.5678 62.812 66.4558 63.352 66.2318 63.8C66.0078 64.248 65.7078 64.588 65.3318 64.82C64.9558 65.052 64.5518 65.168 64.1198 65.168ZM63.9638 64.472C64.2678 64.472 64.5518 64.396 64.8158 64.244C65.0878 64.084 65.3078 63.832 65.4758 63.488C65.6438 63.144 65.7278 62.708 65.7278 62.18C65.7278 61.652 65.6438 61.216 65.4758 60.872C65.3078 60.528 65.0878 60.28 64.8158 60.128C64.5518 59.968 64.2678 59.888 63.9638 59.888C63.2918 59.888 62.7318 60.24 62.2838 60.944V63.416C62.7318 64.12 63.2918 64.472 63.9638 64.472ZM67.8317 67.388C67.5677 67.388 67.3197 67.344 67.0877 67.256V66.536C67.3517 66.64 67.5877 66.692 67.7957 66.692C68.1237 66.692 68.3837 66.596 68.5757 66.404C68.7757 66.212 68.9597 65.896 69.1277 65.456L69.2957 65.024L67.1477 59.36H68.0117L69.6797 63.992L71.4317 59.36H72.2477L69.7397 65.804C69.5317 66.34 69.2837 66.736 68.9957 66.992C68.7077 67.256 68.3197 67.388 67.8317 67.388Z" fill="#949AA4"/>
<path d="M75 61C75 56.5817 78.5817 53 83 53C87.4183 53 91 56.5817 91 61C91 65.4183 87.4183 69 83 69C78.5817 69 75 65.4183 75 61Z" fill="#5865F2"/>
<path fill-rule="evenodd" clip-rule="evenodd" d="M83 56.1562C80.3249 56.1562 78.1562 58.3249 78.1562 61C78.1562 63.6751 80.3249 65.8438 83 65.8438C85.6751 65.8438 87.8438 63.6751 87.8438 61C87.8438 58.3249 85.6751 56.1562 83 56.1562ZM83 57.9323C82.8217 57.9323 82.6771 58.0769 82.6771 58.2552V61C82.6771 61.0671 82.6975 61.1294 82.7326 61.1811C82.7504 61.2074 82.7722 61.2313 82.7979 61.2519C82.8118 61.2631 82.8267 61.2731 82.8423 61.2819L84.8655 62.4736C85.0192 62.5642 85.2172 62.513 85.3077 62.3593C85.3982 62.2056 85.347 62.0077 85.1933 61.9172L83.3229 60.8154V58.2552C83.3229 58.0769 83.1783 57.9323 83 57.9323Z" fill="white"/>
<path d="M96.624 65H95.76V57.536H93.192V56.72H99.192V57.536H96.624V65ZM100.755 57.956C100.595 57.956 100.463 57.904 100.359 57.8C100.255 57.696 100.203 57.564 100.203 57.404C100.203 57.244 100.255 57.112 100.359 57.008C100.463 56.904 100.595 56.852 100.755 56.852C100.915 56.852 101.047 56.904 101.151 57.008C101.255 57.112 101.307 57.244 101.307 57.404C101.307 57.564 101.255 57.696 101.151 57.8C101.047 57.904 100.915 57.956 100.755 57.956ZM101.163 65H100.347V59.36H101.163V65ZM109.077 59.192C109.613 59.192 110.049 59.356 110.385 59.684C110.729 60.012 110.901 60.48 110.901 61.088V65H110.085V61.088C110.085 60.704 109.969 60.404 109.737 60.188C109.513 59.972 109.209 59.864 108.825 59.864C108.249 59.864 107.773 60.192 107.397 60.848V65H106.581V61.088C106.581 60.704 106.465 60.404 106.233 60.188C106.009 59.972 105.705 59.864 105.321 59.864C105.033 59.864 104.773 59.944 104.541 60.104C104.309 60.256 104.093 60.504 103.893 60.848V65H103.077V59.36H103.761L103.893 60.056C104.277 59.48 104.833 59.192 105.561 59.192C105.969 59.192 106.321 59.284 106.617 59.468C106.913 59.652 107.121 59.9 107.241 60.212C107.425 59.908 107.677 59.664 107.997 59.48C108.325 59.288 108.685 59.192 109.077 59.192ZM115.059 65.168C114.499 65.168 114.019 65.032 113.619 64.76C113.227 64.488 112.931 64.124 112.731 63.668C112.531 63.212 112.431 62.708 112.431 62.156C112.431 61.604 112.531 61.104 112.731 60.656C112.939 60.2 113.239 59.844 113.631 59.588C114.023 59.324 114.483 59.192 115.011 59.192C115.715 59.192 116.283 59.428 116.715 59.9C117.155 60.372 117.375 61.048 117.375 61.928C117.375 62.112 117.371 62.252 117.363 62.348H113.247C113.279 63.004 113.459 63.524 113.787 63.908C114.115 64.284 114.547 64.472 115.083 64.472C115.819 64.472 116.383 64.16 116.775 63.536L117.399 63.944C117.103 64.392 116.771 64.708 116.403 64.892C116.043 65.076 115.595 65.168 115.059 65.168ZM116.607 61.652C116.591 61.044 116.431 60.6 116.127 60.32C115.823 60.032 115.435 59.888 114.963 59.888C114.515 59.888 114.139 60.04 113.835 60.344C113.539 60.648 113.355 61.084 113.283 61.652H116.607ZM122.678 65H118.454V64.304L121.658 60.056H118.61V59.36H122.534V60.056L119.33 64.304H122.678V65ZM126.379 65.168C125.883 65.168 125.435 65.048 125.035 64.808C124.643 64.56 124.335 64.212 124.111 63.764C123.887 63.308 123.775 62.78 123.775 62.18C123.775 61.572 123.887 61.044 124.111 60.596C124.335 60.14 124.643 59.792 125.035 59.552C125.435 59.312 125.883 59.192 126.379 59.192C126.875 59.192 127.319 59.312 127.711 59.552C128.111 59.792 128.423 60.14 128.647 60.596C128.871 61.044 128.983 61.572 128.983 62.18C128.983 62.788 128.871 63.32 128.647 63.776C128.423 64.224 128.115 64.568 127.723 64.808C127.331 65.048 126.883 65.168 126.379 65.168ZM126.379 64.472C126.915 64.472 127.347 64.276 127.675 63.884C128.003 63.484 128.167 62.916 128.167 62.18C128.167 61.452 128.003 60.888 127.675 60.488C127.347 60.088 126.915 59.888 126.379 59.888C125.843 59.888 125.411 60.088 125.083 60.488C124.755 60.88 124.591 61.444 124.591 62.18C124.591 62.916 124.755 63.484 125.083 63.884C125.411 64.276 125.843 64.472 126.379 64.472ZM130.523 65V59.36H131.219L131.339 60.104C131.531 59.832 131.779 59.612 132.083 59.444C132.387 59.276 132.723 59.192 133.09 59.192C133.691 59.192 134.147 59.364 134.459 59.708C134.779 60.044 134.939 60.528 134.939 61.16V65H134.123V61.16C134.123 60.296 133.723 59.864 132.923 59.864C132.603 59.864 132.319 59.948 132.071 60.116C131.823 60.276 131.579 60.536 131.339 60.896V65H130.523ZM139.106 65.168C138.546 65.168 138.066 65.032 137.666 64.76C137.274 64.488 136.978 64.124 136.778 63.668C136.578 63.212 136.478 62.708 136.478 62.156C136.478 61.604 136.578 61.104 136.778 60.656C136.986 60.2 137.286 59.844 137.678 59.588C138.07 59.324 138.53 59.192 139.058 59.192C139.762 59.192 140.33 59.428 140.762 59.9C141.202 60.372 141.422 61.048 141.422 61.928C141.422 62.112 141.418 62.252 141.41 62.348H137.294C137.326 63.004 137.506 63.524 137.834 63.908C138.162 64.284 138.594 64.472 139.13 64.472C139.866 64.472 140.43 64.16 140.822 63.536L141.446 63.944C141.15 64.392 140.818 64.708 140.45 64.892C140.09 65.076 139.642 65.168 139.106 65.168ZM140.654 61.652C140.638 61.044 140.478 60.6 140.174 60.32C139.87 60.032 139.482 59.888 139.01 59.888C138.562 59.888 138.186 60.04 137.882 60.344C137.586 60.648 137.402 61.084 137.33 61.652H140.654ZM144.732 65.168C144.284 65.168 143.864 65.072 143.472 64.88C143.08 64.68 142.772 64.396 142.548 64.028L143.16 63.524C143.352 63.852 143.58 64.092 143.844 64.244C144.116 64.396 144.436 64.472 144.804 64.472C145.156 64.472 145.44 64.38 145.656 64.196C145.872 64.012 145.98 63.764 145.98 63.452C145.98 63.252 145.928 63.096 145.824 62.984C145.728 62.864 145.592 62.772 145.416 62.708C145.24 62.644 144.992 62.572 144.672 62.492L144.36 62.42C143.872 62.308 143.476 62.14 143.172 61.916C142.876 61.684 142.728 61.32 142.728 60.824C142.728 60.304 142.908 59.904 143.268 59.624C143.628 59.336 144.092 59.192 144.66 59.192C145.132 59.192 145.524 59.28 145.836 59.456C146.148 59.624 146.428 59.884 146.676 60.236L146.112 60.716C145.92 60.428 145.708 60.22 145.476 60.092C145.244 59.956 144.976 59.888 144.672 59.888C144.328 59.888 144.04 59.968 143.808 60.128C143.584 60.288 143.472 60.508 143.472 60.788C143.472 61.068 143.58 61.276 143.796 61.412C144.02 61.54 144.396 61.664 144.924 61.784L145.236 61.856C145.7 61.968 146.076 62.132 146.364 62.348C146.652 62.564 146.796 62.912 146.796 63.392C146.796 63.944 146.604 64.38 146.22 64.7C145.844 65.012 145.348 65.168 144.732 65.168Z" fill="white"/>
<rect x="0.5" y="0.5" width="241" height="73" rx="4.5" stroke="white" stroke-opacity="0.24"/>
</svg>
