<svg width="512" height="512" viewBox="0 0 512 512" fill="none" xmlns="http://www.w3.org/2000/svg">
<rect width="512" height="512" rx="256" fill="#5865F2"/>
<path fill-rule="evenodd" clip-rule="evenodd" d="M256 101C170.396 101 101 170.396 101 256C101 341.604 170.396 411 256 411C341.604 411 411 341.604 411 256C411 170.396 341.604 101 256 101ZM256 157.833C250.293 157.833 245.667 162.46 245.667 168.167V256C245.667 258.147 246.322 260.141 247.442 261.794C248.011 262.635 248.711 263.402 249.533 264.06C249.978 264.418 250.454 264.739 250.955 265.02L315.698 303.156C320.615 306.053 326.949 304.415 329.846 299.498C332.742 294.58 331.104 288.246 326.187 285.349L266.333 250.093V168.167C266.333 162.46 261.707 157.833 256 157.833Z" fill="white"/>
</svg>
